# Blender v2.79 (sub 0) OBJ File: ''
# www.blender.org
mtllib stalagtite.mtl
o Cube
v 1.000000 0.000000 -1.000000
v 0.448589 0.000000 1.000000
v -1.000000 0.000000 1.000000
v -0.448589 0.000000 -1.000000
v -0.007763 3.054747 -1.009399
v -0.559174 3.054747 0.990602
v 0.889415 3.054747 0.990602
v 1.289898 3.809388 -0.858470
v -0.688232 7.040201 -1.118264
v -1.381516 6.447867 0.507319
v 0.208946 9.040201 0.881736
v 0.609429 8.662880 -0.967336
v -0.242692 17.452684 -0.552326
vt 0.000059 0.519269
vt 0.010870 0.481101
vt 0.067682 0.481497
vt 0.056871 0.519666
vt 0.083524 0.000059
vt 0.123152 0.001865
vt 0.126537 0.106504
vt 0.091774 0.084177
vt 0.052825 0.604090
vt 0.000704 0.623960
vt 0.143622 0.000059
vt 0.183223 0.002390
vt 0.166257 0.085191
vt 0.126656 0.082860
vt 0.064815 0.397025
vt 0.008003 0.396628
vt 0.009868 0.285883
vt 0.058714 0.300696
vt 0.011236 0.000059
vt 0.183223 0.180210
vt 0.133377 0.247717
vt 0.101445 0.238384
vt 0.067800 0.192312
vt 0.051760 0.769081
vt 0.000061 0.758205
vt 0.140940 0.481621
vt 0.067803 0.478139
vt 0.013398 0.999941
vn 0.0000 1.0000 0.0000
vn -0.0511 -0.0138 0.9986
vn -0.9698 0.1075 -0.2188
vn 0.0000 -0.0031 -1.0000
vn 0.9127 0.2138 0.3483
vn 0.9549 -0.1370 0.2633
vn 0.9259 -0.0599 0.3730
vn 0.1538 -0.0377 -0.9874
vn -0.1208 0.0059 0.9927
vn -0.9668 -0.1259 -0.2222
vn 0.4232 -0.1301 -0.8966
vn -0.0509 -0.0520 0.9973
vn -0.9772 -0.0856 -0.1942
usemtl Material
s off
f 1/1/1 4/2/1 3/3/1 2/4/1
f 4/5/2 1/6/2 8/7/2 5/8/2
f 1/1/3 2/4/3 7/9/3 8/10/3
f 2/11/4 3/12/4 6/13/4 7/14/4
f 6/15/5 5/16/5 9/17/5 10/18/5
f 3/3/6 4/2/6 5/16/6 6/15/6
f 10/18/7 9/17/7 13/19/7
f 7/14/8 6/13/8 10/20/8 11/21/8
f 5/8/9 8/7/9 12/22/9 9/23/9
f 8/10/10 7/9/10 11/24/10 12/25/10
f 11/21/11 10/20/11 13/26/11
f 9/23/12 12/22/12 13/27/12
f 12/25/13 11/24/13 13/28/13
